<mxfile host="app.diagrams.net" modified="2023-09-18T11:51:18.840Z" agent="Mozilla/5.0 (Windows NT 10.0; Win64; x64) AppleWebKit/537.36 (KHTML, like Gecko) Chrome/116.0.0.0 Safari/537.36" etag="6saO0-nAMWAZH5Xy5kp2" version="21.7.5" type="github" pages="2">
  <diagram id="C5RBs43oDa-KdzZeNtuy" name="单集群">
    <mxGraphModel dx="1728" dy="932" grid="1" gridSize="10" guides="1" tooltips="1" connect="1" arrows="1" fold="1" page="1" pageScale="1" pageWidth="827" pageHeight="1169" math="0" shadow="0">
      <root>
        <mxCell id="WIyWlLk6GJQsqaUBKTNV-0" />
        <mxCell id="WIyWlLk6GJQsqaUBKTNV-1" parent="WIyWlLk6GJQsqaUBKTNV-0" />
        <mxCell id="oU_LmYIPsGICezHIjcui-0" value="" style="swimlane;startSize=0;" vertex="1" parent="WIyWlLk6GJQsqaUBKTNV-1">
          <mxGeometry x="80" y="80" width="600" height="590" as="geometry" />
        </mxCell>
        <mxCell id="oU_LmYIPsGICezHIjcui-2" value="" style="swimlane;startSize=0;" vertex="1" parent="oU_LmYIPsGICezHIjcui-0">
          <mxGeometry x="40" y="40" width="520" height="520" as="geometry" />
        </mxCell>
        <mxCell id="oU_LmYIPsGICezHIjcui-3" value="Region" style="text;html=1;align=center;verticalAlign=middle;resizable=0;points=[];autosize=1;strokeColor=none;fillColor=none;" vertex="1" parent="oU_LmYIPsGICezHIjcui-2">
          <mxGeometry width="60" height="30" as="geometry" />
        </mxCell>
        <mxCell id="oU_LmYIPsGICezHIjcui-4" value="" style="swimlane;startSize=0;" vertex="1" parent="oU_LmYIPsGICezHIjcui-2">
          <mxGeometry x="40" y="40" width="440" height="440" as="geometry" />
        </mxCell>
        <mxCell id="oU_LmYIPsGICezHIjcui-6" value="服务" style="rounded=1;whiteSpace=wrap;html=1;" vertex="1" parent="oU_LmYIPsGICezHIjcui-4">
          <mxGeometry x="120" y="180" width="200" height="60" as="geometry" />
        </mxCell>
        <mxCell id="oU_LmYIPsGICezHIjcui-1" value="Cloud" style="text;html=1;align=center;verticalAlign=middle;resizable=0;points=[];autosize=1;strokeColor=none;fillColor=none;" vertex="1" parent="WIyWlLk6GJQsqaUBKTNV-1">
          <mxGeometry x="85" y="78" width="50" height="30" as="geometry" />
        </mxCell>
        <mxCell id="oU_LmYIPsGICezHIjcui-5" value="AZ" style="text;html=1;align=center;verticalAlign=middle;resizable=0;points=[];autosize=1;strokeColor=none;fillColor=none;" vertex="1" parent="WIyWlLk6GJQsqaUBKTNV-1">
          <mxGeometry x="160" y="158" width="40" height="30" as="geometry" />
        </mxCell>
      </root>
    </mxGraphModel>
  </diagram>
  <diagram name="双集群" id="RxhXTbPgEaF2tGvdVC6O">
    <mxGraphModel dx="1728" dy="932" grid="1" gridSize="10" guides="1" tooltips="1" connect="1" arrows="1" fold="1" page="1" pageScale="1" pageWidth="827" pageHeight="1169" math="0" shadow="0">
      <root>
        <mxCell id="ZKoCd-gMBK0D-2Glx2Sk-0" />
        <mxCell id="ZKoCd-gMBK0D-2Glx2Sk-1" parent="ZKoCd-gMBK0D-2Glx2Sk-0" />
        <mxCell id="ZKoCd-gMBK0D-2Glx2Sk-2" value="" style="swimlane;startSize=0;" vertex="1" parent="ZKoCd-gMBK0D-2Glx2Sk-1">
          <mxGeometry x="80" y="80" width="600" height="590" as="geometry" />
        </mxCell>
        <mxCell id="ZKoCd-gMBK0D-2Glx2Sk-3" value="" style="swimlane;startSize=0;" vertex="1" parent="ZKoCd-gMBK0D-2Glx2Sk-2">
          <mxGeometry x="40" y="40" width="520" height="520" as="geometry" />
        </mxCell>
        <mxCell id="ZKoCd-gMBK0D-2Glx2Sk-4" value="Region" style="text;html=1;align=center;verticalAlign=middle;resizable=0;points=[];autosize=1;strokeColor=none;fillColor=none;" vertex="1" parent="ZKoCd-gMBK0D-2Glx2Sk-3">
          <mxGeometry width="60" height="30" as="geometry" />
        </mxCell>
        <mxCell id="ZKoCd-gMBK0D-2Glx2Sk-5" value="" style="swimlane;startSize=0;" vertex="1" parent="ZKoCd-gMBK0D-2Glx2Sk-3">
          <mxGeometry x="40" y="40" width="160" height="440" as="geometry" />
        </mxCell>
        <mxCell id="v_y0mahdWmzPvL9yVtN6-0" value="" style="swimlane;startSize=0;" vertex="1" parent="ZKoCd-gMBK0D-2Glx2Sk-3">
          <mxGeometry x="320" y="40" width="160" height="440" as="geometry" />
        </mxCell>
        <mxCell id="v_y0mahdWmzPvL9yVtN6-1" value="AZ2" style="text;html=1;align=center;verticalAlign=middle;resizable=0;points=[];autosize=1;strokeColor=none;fillColor=none;" vertex="1" parent="v_y0mahdWmzPvL9yVtN6-0">
          <mxGeometry x="-5" width="50" height="30" as="geometry" />
        </mxCell>
        <mxCell id="ZKoCd-gMBK0D-2Glx2Sk-6" value="服务" style="rounded=1;whiteSpace=wrap;html=1;" vertex="1" parent="ZKoCd-gMBK0D-2Glx2Sk-3">
          <mxGeometry x="80" y="250" width="360" height="60" as="geometry" />
        </mxCell>
        <mxCell id="ZKoCd-gMBK0D-2Glx2Sk-7" value="Cloud" style="text;html=1;align=center;verticalAlign=middle;resizable=0;points=[];autosize=1;strokeColor=none;fillColor=none;" vertex="1" parent="ZKoCd-gMBK0D-2Glx2Sk-1">
          <mxGeometry x="85" y="78" width="50" height="30" as="geometry" />
        </mxCell>
        <mxCell id="ZKoCd-gMBK0D-2Glx2Sk-8" value="AZ1" style="text;html=1;align=center;verticalAlign=middle;resizable=0;points=[];autosize=1;strokeColor=none;fillColor=none;" vertex="1" parent="ZKoCd-gMBK0D-2Glx2Sk-1">
          <mxGeometry x="155" y="158" width="50" height="30" as="geometry" />
        </mxCell>
      </root>
    </mxGraphModel>
  </diagram>
</mxfile>
